<mxfile host="app.diagrams.net" modified="2023-12-11T14:11:50.846Z" agent="Mozilla/5.0 (Windows NT 10.0; Win64; x64) AppleWebKit/537.36 (KHTML, like Gecko) Chrome/120.0.0.0 Safari/537.36" etag="WGzKV-yBV-r0urBiycgp" version="22.1.7" type="device">
  <diagram name="Страница — 1" id="YDZX4-zJ9VGdfiPbXKX9">
    <mxGraphModel dx="1500" dy="763" grid="1" gridSize="10" guides="1" tooltips="1" connect="1" arrows="1" fold="1" page="1" pageScale="1" pageWidth="827" pageHeight="1169" math="0" shadow="0">
      <root>
        <mxCell id="0" />
        <mxCell id="1" parent="0" />
        <mxCell id="4OA92k-0ATn8GlJd0UsL-14" style="edgeStyle=orthogonalEdgeStyle;rounded=0;orthogonalLoop=1;jettySize=auto;html=1;exitX=0.5;exitY=1;exitDx=0;exitDy=0;entryX=0.5;entryY=0;entryDx=0;entryDy=0;endArrow=none;endFill=0;" edge="1" parent="1" source="4OA92k-0ATn8GlJd0UsL-1" target="4OA92k-0ATn8GlJd0UsL-2">
          <mxGeometry relative="1" as="geometry" />
        </mxCell>
        <mxCell id="4OA92k-0ATn8GlJd0UsL-1" value="начало" style="ellipse;whiteSpace=wrap;html=1;" vertex="1" parent="1">
          <mxGeometry x="354" y="20" width="120" height="50" as="geometry" />
        </mxCell>
        <mxCell id="4OA92k-0ATn8GlJd0UsL-15" style="edgeStyle=orthogonalEdgeStyle;rounded=0;orthogonalLoop=1;jettySize=auto;html=1;exitX=0.5;exitY=1;exitDx=0;exitDy=0;entryX=0.5;entryY=0;entryDx=0;entryDy=0;endArrow=none;endFill=0;" edge="1" parent="1" source="4OA92k-0ATn8GlJd0UsL-2" target="4OA92k-0ATn8GlJd0UsL-3">
          <mxGeometry relative="1" as="geometry" />
        </mxCell>
        <mxCell id="4OA92k-0ATn8GlJd0UsL-2" value="инициализация портов" style="rounded=0;whiteSpace=wrap;html=1;" vertex="1" parent="1">
          <mxGeometry x="354" y="100" width="120" height="40" as="geometry" />
        </mxCell>
        <mxCell id="4OA92k-0ATn8GlJd0UsL-16" style="edgeStyle=orthogonalEdgeStyle;rounded=0;orthogonalLoop=1;jettySize=auto;html=1;exitX=0.5;exitY=1;exitDx=0;exitDy=0;entryX=0.5;entryY=0;entryDx=0;entryDy=0;endArrow=none;endFill=0;" edge="1" parent="1" source="4OA92k-0ATn8GlJd0UsL-3" target="4OA92k-0ATn8GlJd0UsL-5">
          <mxGeometry relative="1" as="geometry" />
        </mxCell>
        <mxCell id="4OA92k-0ATn8GlJd0UsL-3" value="инициализация SPI1, SPI2,&amp;nbsp; USART2" style="rounded=0;whiteSpace=wrap;html=1;" vertex="1" parent="1">
          <mxGeometry x="354" y="170" width="120" height="40" as="geometry" />
        </mxCell>
        <mxCell id="4OA92k-0ATn8GlJd0UsL-17" style="edgeStyle=orthogonalEdgeStyle;rounded=0;orthogonalLoop=1;jettySize=auto;html=1;exitX=0.5;exitY=1;exitDx=0;exitDy=0;entryX=0.5;entryY=0;entryDx=0;entryDy=0;endArrow=none;endFill=0;" edge="1" parent="1" source="4OA92k-0ATn8GlJd0UsL-5" target="4OA92k-0ATn8GlJd0UsL-6">
          <mxGeometry relative="1" as="geometry" />
        </mxCell>
        <mxCell id="4OA92k-0ATn8GlJd0UsL-5" value="инициализация модулей CRC и FATFS" style="rounded=0;whiteSpace=wrap;html=1;" vertex="1" parent="1">
          <mxGeometry x="346" y="240" width="136" height="40" as="geometry" />
        </mxCell>
        <mxCell id="4OA92k-0ATn8GlJd0UsL-18" style="edgeStyle=orthogonalEdgeStyle;rounded=0;orthogonalLoop=1;jettySize=auto;html=1;exitX=0.5;exitY=1;exitDx=0;exitDy=0;entryX=0.5;entryY=0;entryDx=0;entryDy=0;endArrow=none;endFill=0;" edge="1" parent="1" source="4OA92k-0ATn8GlJd0UsL-6" target="4OA92k-0ATn8GlJd0UsL-7">
          <mxGeometry relative="1" as="geometry" />
        </mxCell>
        <mxCell id="4OA92k-0ATn8GlJd0UsL-6" value="инициализация таймера" style="rounded=0;whiteSpace=wrap;html=1;" vertex="1" parent="1">
          <mxGeometry x="346" y="310" width="136" height="40" as="geometry" />
        </mxCell>
        <mxCell id="4OA92k-0ATn8GlJd0UsL-19" style="edgeStyle=orthogonalEdgeStyle;rounded=0;orthogonalLoop=1;jettySize=auto;html=1;exitX=0.5;exitY=1;exitDx=0;exitDy=0;entryX=0.5;entryY=0;entryDx=0;entryDy=0;endArrow=none;endFill=0;" edge="1" parent="1" source="4OA92k-0ATn8GlJd0UsL-7" target="4OA92k-0ATn8GlJd0UsL-8">
          <mxGeometry relative="1" as="geometry" />
        </mxCell>
        <mxCell id="4OA92k-0ATn8GlJd0UsL-7" value="инициализация дисплея" style="rounded=0;whiteSpace=wrap;html=1;" vertex="1" parent="1">
          <mxGeometry x="346" y="380" width="136" height="40" as="geometry" />
        </mxCell>
        <mxCell id="4OA92k-0ATn8GlJd0UsL-20" style="edgeStyle=orthogonalEdgeStyle;rounded=0;orthogonalLoop=1;jettySize=auto;html=1;exitX=0.5;exitY=1;exitDx=0;exitDy=0;entryX=0.5;entryY=0;entryDx=0;entryDy=0;endArrow=none;endFill=0;" edge="1" parent="1" source="4OA92k-0ATn8GlJd0UsL-8" target="4OA92k-0ATn8GlJd0UsL-9">
          <mxGeometry relative="1" as="geometry" />
        </mxCell>
        <mxCell id="4OA92k-0ATn8GlJd0UsL-8" value="создание автомата состояний state_info" style="rounded=0;whiteSpace=wrap;html=1;" vertex="1" parent="1">
          <mxGeometry x="346" y="450" width="136" height="40" as="geometry" />
        </mxCell>
        <mxCell id="4OA92k-0ATn8GlJd0UsL-21" style="edgeStyle=orthogonalEdgeStyle;rounded=0;orthogonalLoop=1;jettySize=auto;html=1;exitX=0.5;exitY=1;exitDx=0;exitDy=0;entryX=0.5;entryY=0;entryDx=0;entryDy=0;endArrow=none;endFill=0;" edge="1" parent="1" source="4OA92k-0ATn8GlJd0UsL-9" target="4OA92k-0ATn8GlJd0UsL-10">
          <mxGeometry relative="1" as="geometry" />
        </mxCell>
        <mxCell id="4OA92k-0ATn8GlJd0UsL-9" value="запрос для state_info на переход в состояние с выбором алгоритма" style="rounded=0;whiteSpace=wrap;html=1;" vertex="1" parent="1">
          <mxGeometry x="337" y="520" width="154" height="60" as="geometry" />
        </mxCell>
        <mxCell id="4OA92k-0ATn8GlJd0UsL-22" style="edgeStyle=orthogonalEdgeStyle;rounded=0;orthogonalLoop=1;jettySize=auto;html=1;exitX=0.5;exitY=1;exitDx=0;exitDy=0;entryX=0.5;entryY=0;entryDx=0;entryDy=0;endArrow=none;endFill=0;" edge="1" parent="1" source="4OA92k-0ATn8GlJd0UsL-10" target="4OA92k-0ATn8GlJd0UsL-11">
          <mxGeometry relative="1" as="geometry" />
        </mxCell>
        <mxCell id="4OA92k-0ATn8GlJd0UsL-10" value="true" style="rhombus;whiteSpace=wrap;html=1;" vertex="1" parent="1">
          <mxGeometry x="361" y="620" width="106" height="60" as="geometry" />
        </mxCell>
        <mxCell id="4OA92k-0ATn8GlJd0UsL-23" style="edgeStyle=orthogonalEdgeStyle;rounded=0;orthogonalLoop=1;jettySize=auto;html=1;exitX=0.5;exitY=1;exitDx=0;exitDy=0;entryX=0.5;entryY=0;entryDx=0;entryDy=0;endArrow=none;endFill=0;" edge="1" parent="1" source="4OA92k-0ATn8GlJd0UsL-11" target="4OA92k-0ATn8GlJd0UsL-12">
          <mxGeometry relative="1" as="geometry" />
        </mxCell>
        <mxCell id="4OA92k-0ATn8GlJd0UsL-11" value="проверка на наличие запроса на смену состояния" style="rounded=0;whiteSpace=wrap;html=1;" vertex="1" parent="1">
          <mxGeometry x="327" y="700" width="174" height="50" as="geometry" />
        </mxCell>
        <mxCell id="4OA92k-0ATn8GlJd0UsL-24" style="edgeStyle=orthogonalEdgeStyle;rounded=0;orthogonalLoop=1;jettySize=auto;html=1;exitX=0.5;exitY=1;exitDx=0;exitDy=0;entryX=0.5;entryY=0;entryDx=0;entryDy=0;endArrow=none;endFill=0;" edge="1" parent="1" source="4OA92k-0ATn8GlJd0UsL-12" target="4OA92k-0ATn8GlJd0UsL-13">
          <mxGeometry relative="1" as="geometry" />
        </mxCell>
        <mxCell id="4OA92k-0ATn8GlJd0UsL-12" value="проверка на наличие ввода с ПЭВМ" style="rounded=0;whiteSpace=wrap;html=1;" vertex="1" parent="1">
          <mxGeometry x="327" y="780" width="174" height="50" as="geometry" />
        </mxCell>
        <mxCell id="4OA92k-0ATn8GlJd0UsL-25" style="edgeStyle=orthogonalEdgeStyle;rounded=0;orthogonalLoop=1;jettySize=auto;html=1;exitX=0.5;exitY=1;exitDx=0;exitDy=0;entryX=0;entryY=0.5;entryDx=0;entryDy=0;" edge="1" parent="1" source="4OA92k-0ATn8GlJd0UsL-13" target="4OA92k-0ATn8GlJd0UsL-10">
          <mxGeometry relative="1" as="geometry">
            <Array as="points">
              <mxPoint x="414" y="930" />
              <mxPoint x="290" y="930" />
              <mxPoint x="290" y="650" />
            </Array>
          </mxGeometry>
        </mxCell>
        <mxCell id="4OA92k-0ATn8GlJd0UsL-13" value="Выполнение действия, соответствующего текущему состоянию" style="rounded=0;whiteSpace=wrap;html=1;" vertex="1" parent="1">
          <mxGeometry x="327" y="860" width="174" height="50" as="geometry" />
        </mxCell>
      </root>
    </mxGraphModel>
  </diagram>
</mxfile>
